<svg width="121" height="37" viewBox="0 0 121 37" fill="none" xmlns="http://www.w3.org/2000/svg">
    <path d="M6.45 10.957v.344l.955.95v13.43l-.956.95v.342h2.479V10.957H6.449zM9.67 7.644v.343l.956.95v20.057l-.955.95v.344H12.149V7.644H9.671zM12.949 4.42v.344l.956.95v26.503l-.956.95v.343h2.48V4.42h-2.48zM18.757 35.5V2.458l.957-.95v-.343h-3.435v.342l.955.951v33.044l-.941.936v.343h3.435v-.343l-.955-.95-.016.012zM3.217 22.99v.95h.346l.955-.95h1.193v-1.515H3.217v1.514zM26.917 10.957v16.016H29.395v-.343l-.955-.95V12.25l.955-.949v-.344H26.917zM23.696 7.644v22.644H26.174v-.343l-.955-.951V8.937l.955-.95v-.343H23.696zM20.416 4.42v29.09h2.479v-.342l-.955-.951V5.714l.955-.95V4.42h-2.479zM.345 17.258H0v3.415h.345l.956-.95h4.41v-1.515H1.3l-.956-.95zM3.563 13.991h-.346v2.465h2.494v-1.515H4.518l-.955-.95zM30.384 22.99h1.194l.955.95h.345v-2.465h-2.494v1.514zM35.75 17.258l-.955.95h-4.411v1.516h4.41l.956.949h.345v-3.415h-.345zM32.878 14.94v-.949h-.345l-.955.95h-1.194v1.515h2.494v-1.515zM77.857 37H76.36l-2.893-3.088V37H71.8v-5.545h1.494l2.885 3.072v-3.072h1.675L77.857 37zM84.901 34.756h-2.314V37h-1.675v-5.545h3.996v1.11h-2.32v1.073H84.9v1.118zM93.029 32.803h-2.044V37h-1.676v-4.197h-2.043v-1.348h5.767l-.004 1.348z" fill="#C2B59B"/>
    <path d="M88.252 22.236H76.578v2.462h11.674v-2.462z" fill="#F4F5F0"/>
    <path d="M76.578 22.236H64.904v2.462h11.674v-2.462z" fill="#018C45"/>
    <path d="M99.926 22.236H88.252v2.462h11.674v-2.462z" fill="#CE202A"/>
    <path d="M57.945 3.215v12.007H55.56V3.215h-3.63V.994h9.634v2.22h-3.62zM87.181.987v12.008h4.645v2.22h-7.03V.987h2.385zM71.54 0l-7.817 15.222h2.569l1.664-3.29 1.092-2.22h-.004l2.456-4.87 2.343 4.87h-.002l.972 2.032h.002l.273.575.004.006 1.38 2.897h2.61L71.54 0zM113.459 0l-7.818 15.222h2.568l1.666-3.29 1.09-2.22h-.003l2.455-4.87 2.344 4.87h-.001l.972 2.032h.001l.274.575.002.006 1.381 2.897H121L113.459 0zM43.83.988v14.234h2.384V.987h-.003l-2.38.001zM99.925.988H97.54v14.234h2.384V.988z" fill="#231F20"/>
</svg>
